<svg xmlns="http://www.w3.org/2000/svg" enable-background="new 0 0 512 512" viewBox="0 0 512 512"><path d="M130.2 397.2h-22c-24.1 0-40.7-12-53-30.8-1.1-1.7-3.7-.9-3.7 1.1v38.8c0 9.8 7.9 17.7 17.7 17.7h45.1c9.8 0 17.7-7.9 17.7-17.7v-7C132.2 398.1 131.3 397.2 130.2 397.2zM456.9 366.4c-12.3 18.8-33.9 30.8-58 30.8h-17c-1.1 0-2 .9-2 2v7c0 9.8 7.9 17.7 17.7 17.7h45.1c9.8 0 17.7-7.9 17.7-17.7v-38.8C460.5 365.5 458 364.7 456.9 366.4zM487.5 170.6h-35.7c-5.3 0-9.7 4.3-9.7 9.7v10.3l-17.8 14.7-6.9-39C409.3 120.9 367.2 88 317.4 88H194.8c-49.8 0-91.9 32.9-100.1 78.3l-6.8 38.6-17.8-15.4c-.1-.1-.1-.1-.2-.2v-9.3c0-5.3-4.3-9.7-9.7-9.7H24.5c-5.3 0-9.7 4.3-9.7 9.7v11.6c0 5.3 4.3 9.7 9.7 9.7h35.7c.2 0 .4 0 .6 0l15.6 13.5 6.8 5.9.7.6c-11.4 3-21.4 9.4-28.7 18.8-9.6 12.2-12.9 27.8-9.2 42.6l15.1 60.1c5.8 23.2 27.2 39.3 52.1 39.3h285.7c24.9 0 46.3-16.2 52.1-39.3l2.1-8.6.2-.8 12.7-50.7c3.7-14.9.4-30.4-9.1-42.6-7.3-9.3-17.2-15.8-28.5-18.7l.7-.6 7-5.8 15.7-12.9c.2-.2.4-.3.5-.5h35.2c5.3 0 9.7-4.3 9.7-9.7v-11.7C497.2 175 492.8 170.6 487.5 170.6zM100.5 219h.2l1.3-7.5 7.5-42.6c6.9-38.2 42.8-65.9 85.3-65.9h122.7c42.5 0 78.4 27.7 85.3 65.9l7.5 42.6 1.3 7.5h.2c0 .2 0 .3 0 .5H100.5C100.5 219.4 100.5 219.2 100.5 219zM365.4 286.4c.1 1.6.3 3.2.6 4.7.3 1.5.7 3.1 1.2 4.6.3.9.6 1.8 1 2.6.2.4.3.8.5 1.1.3.6.5 1.1.8 1.7.2.4.4.9.7 1.3.1.1.2.3.2.4H141.6c.8-1.5 1.6-3 2.2-4.5 1.9-4.6 2.9-9.6 2.9-14.8 0-1.3-.1-2.6-.2-3.8-.1-1.3-.3-2.5-.6-3.8-.8-4.1-2.4-8.1-4.4-11.7h228.9c-.1.2-.2.3-.3.5-.2.4-.4.8-.6 1.2-.3.6-.6 1.1-.8 1.7-.2.4-.3.8-.5 1.1-.4.9-.7 1.8-1 2.7-.4 1.2-.7 2.4-1 3.6-.1.3-.1.6-.2.9-.3 1.2-.4 2.5-.6 3.8-.1 1.3-.2 2.5-.2 3.8C365.3 284.5 365.3 285.5 365.4 286.4zM84.2 283.5c0-13.1 10.6-23.8 23.8-23.8.5 0 1.1 0 1.6 0 3.8.3 7.4 1.4 10.6 3.3 3.6 2.2 6.5 5.2 8.5 8.7s3.1 7.5 3.1 11.7c0 6.2-2.4 12.1-6.7 16.5-1.5 1.5-3.1 2.8-4.9 3.9-3.7 2.2-7.9 3.4-12.2 3.4C94.9 307.3 84.2 296.6 84.2 283.5zM141.9 365.4h-32.4c-4.1 0-7.5-3.4-7.5-7.5 0-4.2 3.4-7.5 7.5-7.5h32.4c4.2 0 7.5 3.3 7.5 7.5C149.4 362.1 146 365.4 141.9 365.4zM402.7 365.4h-32.4c-4.1 0-7.5-3.4-7.5-7.5 0-4.2 3.4-7.5 7.5-7.5h32.4c4.1 0 7.5 3.3 7.5 7.5C410.2 362.1 406.9 365.4 402.7 365.4zM404 307.3c-4.3 0-8.5-1.2-12.2-3.4-1.8-1.1-3.4-2.3-4.8-3.8-4.3-4.4-6.7-10.3-6.7-16.5 0-8.4 4.3-16 11.5-20.4 3.7-2.2 7.9-3.4 12.2-3.4 13.1 0 23.8 10.7 23.8 23.8C427.8 296.6 417.1 307.3 404 307.3z"/></svg>